<svg width="40" height="39" viewBox="0 0 40 39" fill="none" xmlns="http://www.w3.org/2000/svg">
<path d="M22.6721 3.436L25.6786 9.3271C26.4051 10.7507 27.7684 11.7412 29.3468 11.9922L35.8786 13.0311C38.2977 13.4158 39.261 16.3807 37.5301 18.1138L32.8564 22.7935C31.7269 23.9244 31.2062 25.527 31.4552 27.1058L32.4857 33.6389C32.8673 36.0585 30.3452 37.8908 28.162 36.7802L22.2671 33.7814C20.8426 33.0567 19.1574 33.0567 17.7329 33.7814L11.838 36.7802C9.65477 37.8908 7.1327 36.0585 7.51433 33.6389L8.54478 27.1058C8.79379 25.527 8.27306 23.9244 7.14364 22.7935L2.46991 18.1138C0.739002 16.3807 1.70235 13.4158 4.12138 13.0311L10.6532 11.9922C12.2316 11.7412 13.5949 10.7507 14.3214 9.3271L17.3279 3.436C18.4413 1.25425 21.5587 1.25425 22.6721 3.436Z" stroke="rgb(194, 183, 66)" stroke-width="4"/>
</svg>
